<svg viewBox="0 0 8 8" xmlns="http://www.w3.org/2000/svg" width="8" height="8">
  <path d="m7.8828 4.122-1.2089-1.1699c-0.15619-0.15117-0.40947-0.15117-0.56568 0l-0.2416 0.23381v-2.7988c0-0.21378-0.17909-0.3871-0.4-0.3871h-5.0667c-0.22091 0-0.4 0.17332-0.4 0.3871v6.1936c0 0.21378 0.17909 0.38709 0.4 0.38709h2.2667v0.64511c0 0.21378 0.17909 0.3871 0.4 0.3871h1.2089c0.10611 0 0.20784-0.0408 0.28285-0.11339l3.3244-3.2172c0.15621-0.15117 0.15621-0.39623-2.6e-5 -0.5474zm-7.0828-3.3478h4.2667v3.1859l-2.2828 2.2092c-0.00805 8e-3 -0.015493 0.016-0.022773 0.0243h-1.9611zm3.3099 6.4516h-0.6432v-0.62248l2.9244-2.8301 0.6432 0.62245z" />
</svg>
